<svg id="Layer_1" data-name="Layer 1" xmlns="http://www.w3.org/2000/svg" viewBox="0 0 1289 911"><defs><style>.cls-1{fill:#222;}.cls-2{fill:#522d6d;}</style></defs><title>Intalents Logo</title><path class="cls-1" d="M1043.87,497.08c-.21.93-.39,1.86-.61,2.77-1.57,6.27-5.68,10.49-11.08,13.65-4.81,2.82-10.1,4-15.61,4.58a41.07,41.07,0,0,1-19.41-2.32c-7.36-2.89-13.54-7.33-17.7-14.2A55.36,55.36,0,0,1,977,496.5L997,490.65a15.83,15.83,0,0,0,4.86,6.49,17.51,17.51,0,0,0,16.08,3,8.06,8.06,0,0,0,3-1.74,3.29,3.29,0,0,0,0-5.23,12.53,12.53,0,0,0-4.11-2.33c-6.08-1.93-12.23-3.67-18.33-5.53-4.63-1.41-9-3.34-12.49-6.82a18,18,0,0,1-.12-25.15,31.08,31.08,0,0,1,19.43-9.15,41.48,41.48,0,0,1,22.25,3.28c6.09,2.81,11,6.94,14,13.07.17.36.32.73.47,1.1,0,.06,0,.15,0,.37l-8.32,2.39c-3.23.92-6.47,1.79-9.67,2.78a1.68,1.68,0,0,1-2.11-.65,14.51,14.51,0,0,0-14.29-5.37,9.85,9.85,0,0,0-3.52,1.4,3.07,3.07,0,0,0-.27,5.23,10.13,10.13,0,0,0,3.38,1.69c6.74,2,13.53,3.78,20.25,5.83a29.42,29.42,0,0,1,11.72,6.53c2.73,2.55,4,5.83,4.5,9.43a9.3,9.3,0,0,0,.25,1Z"/><path class="cls-1" d="M681.2,451.89v-6h22.12v70.3H681.2V510c-1,.85-1.67,1.52-2.42,2.15-5.5,4.54-11.91,6.23-18.95,6.1-17-.32-29-13.64-32-26.83-2.34-10.34-1.71-20.45,3.6-29.83,5-8.92,12.45-15,22.72-17,7.63-1.48,15.07-.84,21.83,3.42C677.79,449.06,679.37,450.49,681.2,451.89Zm-15.06,46.7a15.13,15.13,0,0,0,9.74-3.84c5.6-5,6.92-11.43,5.38-18.45a15.19,15.19,0,0,0-11.83-12.2c-6.63-1.6-12.67-.24-17.06,5.29-4.71,5.92-5,12.7-2.3,19.45C652.74,495.43,658.12,498.47,666.14,498.59Z"/><path class="cls-1" d="M822.29,498.48a27,27,0,0,1-5.76,8.27C808.94,514.38,799.7,518,789,518.23c-8.72.18-17-1.39-24.27-6.34-9.59-6.49-14.63-15.65-15.49-27.15-.53-7.12.24-14.07,3.4-20.53,5.61-11.46,14.82-18.12,27.5-19.85,7.39-1,14.73-.6,21.69,2.22,11.73,4.76,18.44,13.7,20.84,26a45.25,45.25,0,0,1,.33,13.94c-.13,1.12-.58,1.23-1.51,1.23q-24.59,0-49.17,0h-1.58a13.72,13.72,0,0,0,5.4,8.85,18.59,18.59,0,0,0,10.16,3.15,22.84,22.84,0,0,0,8.53-.9,12.69,12.69,0,0,0,7.06-5.43,1,1,0,0,1,1.34-.55c6.2,1.83,12.4,3.63,18.61,5.45A4.66,4.66,0,0,1,822.29,498.48Zm-20.65-24.17c-.61-7-7.76-12.26-16-11.85-7.66.39-14.72,6.05-14.7,11.85Z"/><path class="cls-1" d="M480.73,445.86h22.1v7c.45-.41.69-.62.91-.85a25.52,25.52,0,0,1,18.59-8.12c5.3-.08,10.54.53,15.34,3.09,6.37,3.4,9.9,9,11.91,15.66a44.61,44.61,0,0,1,1.66,12.89c0,13.22,0,26.44,0,39.66,0,.31,0,.62-.06,1H529.1v-1.57q0-16.95,0-33.9A26.4,26.4,0,0,0,528,472a10.78,10.78,0,0,0-9.94-7.54c-9.49-.75-13.55,5.71-14.69,12.1a29.63,29.63,0,0,0-.45,5.23c0,10.94,0,21.89,0,32.83v1.53H480.73Z"/><path class="cls-1" d="M858,516.21H835.91V445.88h22v7c1.33-1.21,2.41-2.31,3.61-3.27A26.38,26.38,0,0,1,880.7,444,31.24,31.24,0,0,1,892,446.59c6.54,3.1,10.29,8.52,12.49,15.18a39.07,39.07,0,0,1,1.89,12.13c0,13.74,0,27.48,0,41.21,0,.35,0,.7-.06,1.12H884.19v-1.59c0-11.78.06-23.56-.05-35.34A26.87,26.87,0,0,0,883,472c-1.34-4.57-5-7.13-9.77-7.53-9.58-.8-13.76,5.75-14.84,12.35a38,38,0,0,0-.45,5.83c0,10.67,0,21.33,0,32Z"/><path class="cls-1" d="M634.35,419.57v20.74H603.61v75.87h-23V440.34H549.88V419.57Z"/><path class="cls-1" d="M926.21,445.83V423.78h22.13v22h18.89v19.38H948.37v1.25q0,12.21,0,24.44a11.48,11.48,0,0,0,0,1.31c.53,4.17,3.18,6.22,7.6,6a17.48,17.48,0,0,0,7.13-1.83c1.79,5.89,3.55,11.71,5.4,17.8-2.67.77-5.23,1.63-7.86,2.23a38.37,38.37,0,0,1-17,.32c-8.93-2-14.21-7.73-16.39-16.38a40,40,0,0,1-1.09-9c-.15-8.18-.05-16.37-.05-24.56V465.2H915.35V445.83Z"/><path class="cls-1" d="M441,419.55h23.1v96.61H441Z"/><path class="cls-1" d="M715.54,415.48h22V516.15h-22Z"/><path class="cls-2" d="M259.63,514.67,265,504.56q12-22.5,23.95-45a1.41,1.41,0,0,0-.35-2q-21.18-21.1-42.33-42.26c-.31-.3-.59-.62-1.15-1.2l162.6,25.81-1.32.7q-26.93,13.5-53.85,27a1.36,1.36,0,0,0-.9,1.73q3.43,19.5,6.84,39,2,11.2,3.92,22.39a1.4,1.4,0,0,1,0,.35l-.36.34a5.27,5.27,0,0,0-.67-1.13q-21.57-21.58-43.14-43.15a1.59,1.59,0,0,0-2.23-.35q-27.62,13.73-55.26,27.37Zm78.13-31c-.12-.76-.23-1.5-.36-2.25-1.14-6.92-2.27-13.84-3.44-20.76a1.27,1.27,0,0,1,.81-1.58c4.88-2.47,9.73-5,14.59-7.49l6.12-3.18,0-.29-63-9.67Z"/><path class="cls-2" d="M345.31,379.61A17.23,17.23,0,1,1,328,396.85,17.15,17.15,0,0,1,345.31,379.61Z"/></svg>