<svg id="Layer_1" data-name="Layer 1" xmlns="http://www.w3.org/2000/svg" viewBox="0 0 1289 911"><defs><style>.cls-1{fill:#522d6d;}</style></defs><title>Logomark</title><path class="cls-1" d="M466.48,611.5l14.25-26.8Q512.44,525,544.24,465.39c1.28-2.39.84-3.61-.91-5.36Q487.14,404,431.06,348c-.8-.8-1.56-1.65-3-3.19l431.12,68.43c-1.53.82-2.51,1.37-3.51,1.87q-71.37,35.81-142.78,71.56c-2.19,1.09-2.8,2.24-2.39,4.6q9.15,51.71,18.15,103.41Q733.82,624.34,739,654a3.68,3.68,0,0,1-.07.93l-1,.9a13.75,13.75,0,0,0-1.76-3q-57.19-57.21-114.4-114.41c-2-2-3.42-2.16-5.91-.92q-73.22,36.39-146.52,72.59Zm207.17-82.26c-.33-2-.63-4-1-6-3-18.35-6-36.7-9.12-55-.35-2.09.18-3.2,2.15-4.19,12.93-6.54,25.8-13.22,38.68-19.86,5.41-2.8,10.81-5.63,16.21-8.44l-.09-.76L553.58,409.32Z"/><path class="cls-1" d="M693.66,253.39a45.68,45.68,0,1,1-45.9,45.72C647.58,273.89,668.17,253.39,693.66,253.39Z"/></svg>